{"title":"Simon Bolivar Orchestra - Live from Stirling","uid":7384962,"size":1054197346,"categoryP":"video","categoryS":"music_videos","magnet":"?xt=urn:btih:7b8f2605caec9da0f87231b7f794f731c4d44245&amp;dn=Simon+Bolivar+Orchestra+-+Live+from+Stirling&amp;tr=udp%3A%2F%2Ftracker.openbittorrent.com%3A80&amp;tr=udp%3A%2F%2Fopen.demonii.com%3A1337&amp;tr=udp%3A%2F%2Ftracker.coppersurfer.tk%3A6969&amp;tr=udp%3A%2F%2Fexodus.desync.com%3A6969","seeders":1,"leechers":0,"uploader":null,"files":2,"time":1340608884,"description":"Kirsty Wark presents live coverage of a special outdoor concert by the Simon Bolivar Symphony Orchestra conducted by the charismatic Gustavo Dudamel, performed in Raploch in Stirling and marking the start of the London 2012 Festival. The concert, staged in the shadow of Stirling Castle, also celebrates the work of the community-based music programme Sistema Scotland and features a performance from some of the local children who are part of this project. The Simon Bolivar Symphony Orchestra play Beethoven's 3rd Symphony with pieces by Ginastera, Bernstein, etc. and a very special finale, so expect fireworks on and off stage from one of the most exciting orchestras and conductors in the world. \n\nVideo\nID : 1\nFormat : AVC\nFormat/Info : Advanced Video Codec\nFormat profile : &lt;a class=&quot;__cf_email__&quot; href=&quot;/cdn-cgi/l/email-protection&quot; data-cfemail=&quot;2d604c44436d611e031d&quot;&gt;[email&amp;#160;protected]&lt;/a&gt;&lt;script cf-hash='f9e31' type=&quot;text/javascript&quot;&gt;\n/* &lt;![CDATA[ */!function(){try{var t=&quot;currentScript&quot;in document?document.currentScript:function(){for(var t=document.getElementsByTagName(&quot;script&quot;),e=t.length;e--;)if(t[e].getAttribute(&quot;cf-hash&quot;))return t[e]}();if(t&amp;&amp;t.previousSibling){var e,r,n,i,c=t.previousSibling,a=c.getAttribute(&quot;data-cfemail&quot;);if(a){for(e=&quot;&quot;,r=parseInt(a.substr(0,2),16),n=2;a.length-n;n+=2)i=parseInt(a.substr(n,2),16)^r,e+=String.fromCharCode(i);e=document.createTextNode(e),c.parentNode.replaceChild(e,c)}}}catch(u){}}();/* ]]&gt; */&lt;/script&gt;\nFormat settings, CABAC : Yes\nFormat settings, ReFrames : 4 frames\nCodec ID : avc1\nCodec ID/Info : Advanced Video Coding\nDuration : 1h 33mn\nBit rate mode : Constant\nBit rate : 1 404 Kbps\nWidth : 832 pixels\nHeight : 468 pixels\nDisplay aspect ratio : 16:9\nFrame rate mode : Constant\nFrame rate : 25.000 fps\nStandard : PAL\nColor space : YUV\nChroma subsampling : 4:2:0\nBit depth : 8 bits\nScan type : Progressive\nBits/(Pixel*Frame) : 0.144\nStream size : 938 MiB (93%)\n\nAudio\nID : 2\nFormat : AAC\nFormat/Info : Advanced Audio Codec\nFormat profile : HE-AAC / LC\nCodec ID : 40\nDuration : 1h 33mn\nBit rate mode : Constant\nBit rate : 96.0 Kbps\nChannel(s) : 2 channels\nChannel positions : Front: L R\nSampling rate : 48.0 KHz / 24.0 KHz\nCompression mode : Lossy\nStream size : 63.4 MiB (6%)","torrent":{"xt":"urn:btih:7b8f2605caec9da0f87231b7f794f731c4d44245","amp;dn":"Simon+Bolivar+Orchestra+-+Live+from+Stirling","amp;tr":["udp%3A%2F%2Ftracker.openbittorrent.com%3A80","udp%3A%2F%2Fopen.demonii.com%3A1337","udp%3A%2F%2Ftracker.coppersurfer.tk%3A6969","udp%3A%2F%2Fexodus.desync.com%3A6969"],"infoHash":"7b8f2605caec9da0f87231b7f794f731c4d44245","infoHashBuffer":{"type":"Buffer","data":[123,143,38,5,202,236,157,160,248,114,49,183,247,148,247,49,196,212,66,69]},"announce":[],"urlList":[]}}